# File created by Blade
# Date/Time:  Tue Jan 27 18:55:50 2015
# Frame Rate: 120.000 fps
#------------------------------------------------------
:FULLY-SPECIFIED
:DEGREES
3543
root -1.900766 32.735279 -4.970638 43.121047 -31.303558 -28.138318
Spine -3.432027 4.859857 1.366644
Head -4.018841 23.381388 14.679881
LeftShoulder -15.843983 19.848926 19.044298
LeftArm -3.761097 -43.230154 -70.861707
LeftForeArm -10.875991 -0.000000 122.756249
LeftHand -12.514177 -0.000000 38.710424
LeftHandThumb1 -26.253704 0.000000 33.147579
RightShoulder -6.953387 7.656437 -4.263495
RightArm 32.850458 -52.674209 66.708962
RightForeArm -38.233733 -0.000000 41.670545
RightHand -16.000495 -0.000000 9.035092
RightHandThumb1 -24.326973 -0.000000 -32.862282
LeftUpLeg -33.791116 7.294211 11.797634
LeftLeg 22.633399 -0.000000 -0.000000
LeftFoot -31.384762 25.305500 -24.793063
LeftToeBase 8.705415 -0.000000 -0.000000
RightUpLeg -0.476508 -3.052148 -12.949912
RightLeg 91.216637 -0.000000 -0.000000
RightFoot -20.679908 -0.989983 32.142293
RightToeBase 11.420670 -0.000000 -0.000000
3544
root -1.901009 32.738161 -4.980793 42.951302 -31.299133 -27.926915
Spine -3.407042 4.786484 1.326269
Head -4.145408 23.369988 14.446496
LeftShoulder -15.699178 19.592420 19.020557
LeftArm -4.175257 -43.111026 -70.678753
LeftForeArm -10.857789 -0.000000 122.900788
LeftHand -12.357094 -0.000000 38.772002
LeftHandThumb1 -26.253704 0.000000 33.147579
RightShoulder -6.926321 7.681464 -4.331522
RightArm 32.746912 -52.458771 66.909643
RightForeArm -38.193130 -0.000000 41.751929
RightHand -16.036733 -0.000000 8.768932
RightHandThumb1 -24.326973 -0.000000 -32.862282
LeftUpLeg -33.637635 7.078924 11.717950
LeftLeg 22.348549 -0.000000 -0.000000
LeftFoot -31.266065 25.416996 -24.747821
LeftToeBase 8.730652 -0.000000 -0.000000
RightUpLeg -0.697924 -3.287592 -12.761638
RightLeg 90.843006 -0.000000 -0.000000
RightFoot -20.856367 -1.197216 32.036911
RightToeBase 11.452847 -0.000000 -0.000000
3545
root -1.901004 32.741218 -4.990225 42.758711 -31.342586 -27.662408
Spine -3.406684 4.729330 1.177373
Head -4.215117 23.337664 14.332898
LeftShoulder -15.658440 19.462234 18.996135
LeftArm -4.228237 -42.911510 -70.757477
LeftForeArm -10.699021 -0.000000 123.021608
LeftHand -12.275240 0.000000 38.858286
LeftHandThumb1 -26.253704 0.000000 33.147579
RightShoulder -6.898764 7.689523 -4.353321
RightArm 32.587774 -52.172660 67.145590
RightForeArm -38.004829 -0.000000 41.890158
RightHand -15.978741 -0.000000 8.984327
RightHandThumb1 -24.326973 -0.000000 -32.862282
LeftUpLeg -33.474662 6.997037 11.514350
LeftLeg 22.023295 -0.000000 -0.000000
LeftFoot -31.060771 25.440386 -24.623379
LeftToeBase 8.783743 -0.000000 -0.000000
RightUpLeg -0.950475 -3.555557 -12.651607
RightLeg 90.415624 -0.000000 -0.000000
RightFoot -21.037465 -1.372607 31.848100
RightToeBase 11.591536 -0.000000 -0.000000
3546
root -1.896144 32.742613 -5.000096 42.592598 -31.464617 -27.394080
Spine -3.450348 4.742628 0.961602
Head -4.194826 23.315957 14.295714
LeftShoulder -15.883121 19.631664 18.879149
LeftArm -3.510515 -42.492321 -71.335429
LeftForeArm -10.440719 -0.000000 123.068739
LeftHand -12.317880 -0.000000 38.817661
LeftHandThumb1 -26.253704 0.000000 33.147579
RightShoulder -6.876168 7.738238 -4.402090
RightArm 32.411975 -51.973393 67.400409
RightForeArm -37.817254 -0.000000 41.954903
RightHand -16.101990 -0.000000 8.547438
RightHandThumb1 -24.326973 -0.000000 -32.862282
LeftUpLeg -33.346040 6.876067 11.289557
LeftLeg 21.744212 -0.000000 -0.000000
LeftFoot -30.927624 25.507230 -24.634243
LeftToeBase 8.820262 -0.000000 -0.000000
RightUpLeg -1.289110 -3.771514 -12.566279
RightLeg 89.973066 -0.000000 -0.000000
RightFoot -21.142452 -1.528321 31.726933
RightToeBase 11.230328 -0.000000 -0.000000
3547
root -1.898919 32.745178 -5.008106 42.379803 -31.476548 -27.160746
Spine -3.451409 4.745522 0.867032
Head -4.121724 23.192097 14.260517
LeftShoulder -15.810784 19.661389 18.852946
LeftArm -3.298612 -42.226485 -71.625626
LeftForeArm -10.186888 -0.000000 123.192195
LeftHand -12.400225 -0.000000 38.815357
LeftHandThumb1 -26.253704 0.000000 33.147579
RightShoulder -6.878632 7.780931 -4.469897
RightArm 32.162562 -51.717882 67.710371
RightForeArm -37.674233 -0.000000 42.013278
RightHand -16.016823 -0.000000 8.700020
RightHandThumb1 -24.326973 -0.000000 -32.862282
LeftUpLeg -33.165266 6.882836 11.089155
LeftLeg 21.452990 -0.000000 -0.000000
LeftFoot -30.706180 25.430567 -24.467994
LeftToeBase 8.823379 -0.000000 -0.000000
RightUpLeg -1.547728 -4.041056 -12.359770
RightLeg 89.418534 -0.000000 -0.000000
RightFoot -21.227816 -1.644329 31.659419
RightToeBase 11.325272 -0.000000 -0.000000
3548
root -1.904220 32.748401 -5.014890 42.113043 -31.464706 -26.960394
Spine -3.345451 4.670881 0.838222
Head -4.042586 23.191967 14.197507
LeftShoulder -15.880062 19.748751 18.733067
LeftArm -2.952158 -41.919233 -71.984040
LeftForeArm -9.978212 -0.000000 123.307373
LeftHand -12.316710 -0.000000 38.826422
LeftHandThumb1 -26.253704 0.000000 33.147579
RightShoulder -6.844490 7.856661 -4.534748
RightArm 32.001832 -51.541141 67.929950
RightForeArm -37.709794 -0.000000 42.041915
RightHand -16.229173 -0.000000 8.238872
RightHandThumb1 -24.326973 -0.000000 -32.862282
LeftUpLeg -32.920402 6.863803 10.948132
LeftLeg 21.198759 -0.000000 -0.000000
LeftFoot -30.500230 25.337623 -24.295042
LeftToeBase 8.774661 -0.000000 -0.000000
RightUpLeg -1.745731 -4.300159 -12.105609
RightLeg 88.760749 -0.000000 -0.000000
RightFoot -21.228988 -1.803718 31.517277
RightToeBase 10.888753 -0.000000 -0.000000
3549
root -1.905817 32.747253 -5.017910 41.871165 -31.461509 -26.667490
Spine -3.379154 4.582488 0.729259
Head -3.859192 23.001537 14.207359
LeftShoulder -15.853581 19.711706 18.739244
LeftArm -2.871884 -41.561296 -72.238571
LeftForeArm -9.649657 -0.000000 123.442675
LeftHand -12.383921 -0.000000 38.629487
LeftHandThumb1 -26.253704 0.000000 33.147579
RightShoulder -6.811421 7.821081 -4.623639
RightArm 31.865216 -51.299721 68.152047
RightForeArm -37.494314 0.000000 42.074857
RightHand -16.128920 0.000000 8.337349
RightHandThumb1 -24.326973 -0.000000 -32.862282
LeftUpLeg -32.763521 6.759172 10.737948
LeftLeg 20.948709 -0.000000 -0.000000
LeftFoot -30.317577 25.314554 -24.170614
LeftToeBase 8.799342 -0.000000 -0.000000
RightUpLeg -2.009368 -4.594962 -11.902232
RightLeg 88.047777 -0.000000 -0.000000
RightFoot -21.177659 -1.765238 31.449090
RightToeBase 10.860279 -0.000000 -0.000000
